<?xml version="1.0" encoding="UTF-8"?>
<svg width="125.46mm" height="120.89mm" version="1.1" viewBox="0 0 125.46 120.89" xmlns="http://www.w3.org/2000/svg">
 <g transform="translate(-12.867 -178.35)">
  <g transform="translate(-1040.5 -272.25)" fill="#fff">
   <path d="m1077.9 450.6a76.458 38.229 45 0 0-18.143 6.3794 76.458 38.229 45 0 0 27.032 81.096 76.458 38.229 45 0 0 81.096 27.032 76.458 38.229 45 0 0 5.965-12.909c-8.692 3.1439-18.894 2.064-28.424-1.1126-13.513-4.5044-27.48-13.545-40.119-26.184-12.639-12.639-21.679-26.604-26.183-40.117-3.8845-11.654-4.6336-24.315 1.6433-33.989a76.458 38.229 45 0 0-2.867-0.19688zm22.208 11.205c-0.061 0.0523-0.193 0.0917-0.246 0.14469-0.576 0.57597-1.0876 1.6509-1.3839 3.192a49.665 24.833 45 0 1 0.356 0.0362c0.3302-1.1492 0.7476-2.2765 1.2739-3.3729zm21.114 9.6532c-0.7173-0.0159-1.1507 0.0564-1.3627 0.0868-0.024 0.16894-0.074 0.47708-0.086 0.96118a49.665 24.833 45 0 1 18.306 14.278 49.665 24.833 45 0 1 16.981 23.383c2.1213 0.42464 3.2257 0.23791 3.6049 0.18345 0.071-0.49908 0.3703-2.2648-0.8071-5.9557a76.458 38.229 45 0 0-17.006-20.383 76.458 38.229 45 0 0-11.182-10.117c-1.2399-0.58787-2.4235-1.0736-3.5202-1.4392-2.3097-0.76989-3.9031-0.97457-4.9284-0.99735zm47.184 58.643c-1.9609 0.9412-4.0179 1.5436-6.1288 1.8965 3.0802-0.0428 5.1075-0.77339 5.9841-1.65 0.053-0.053 0.093-0.18589 0.1447-0.24649z" style="paint-order:markers fill stroke"/>
   <path d="m1152.9 477.31a59.353 29.676 45 0 0-62.953-20.984 59.353 29.676 45 0 0 20.984 62.953 59.353 29.676 45 0 0 62.954 20.985 59.353 29.676 45 0 0-20.985-62.953zm-2.1522 2.1522a38.554 19.277 45 0 1 13.631 40.893 38.554 19.277 45 0 1-40.893-13.631 38.554 19.277 45 0 1-13.631-40.893 38.554 19.277 45 0 1 40.893 13.631z" style="paint-order:markers fill stroke"/>
  </g>
 </g>
</svg>
