<?xml version="1.0" standalone="no"?>
<!DOCTYPE svg PUBLIC "-//W3C//DTD SVG 20010904//EN"
 "http://www.w3.org/TR/2001/REC-SVG-20010904/DTD/svg10.dtd">
<svg version="1.0" xmlns="http://www.w3.org/2000/svg"
 width="260.000000pt" height="260.000000pt" viewBox="0 0 260.000000 260.000000"
 preserveAspectRatio="xMidYMid meet">
<metadata>
Created by potrace 1.11, written by Peter Selinger 2001-2013
</metadata>
<g transform="translate(0.000000,260.000000) scale(0.100000,-0.100000)"
fill="#000000" stroke="none">
<path d="M1138 2595 c-1 -1 -21 -5 -43 -8 -122 -15 -304 -75 -424 -140 -154
-83 -327 -236 -433 -383 -65 -91 -134 -226 -171 -334 -23 -69 -29 -91 -42
-160 -3 -14 -8 -36 -11 -50 -10 -42 -12 -291 -3 -358 14 -97 17 -114 40 -188
140 -461 502 -796 969 -896 61 -13 142 -21 226 -23 l131 -3 -45 93 -46 93 -55
1 c-31 0 -65 3 -76 5 -11 2 -42 7 -68 10 -109 16 -257 71 -362 133 -328 196
-524 529 -538 913 -3 67 0 102 19 235 9 66 62 215 106 297 103 193 269 358
459 458 79 41 226 93 292 104 20 3 53 9 73 12 51 8 198 8 262 1 318 -39 605
-218 779 -484 110 -169 163 -326 179 -532 5 -74 19 -100 52 -101 7 0 38 -14
69 -31 33 -19 58 -27 62 -21 8 13 6 138 -4 228 -56 541 -468 991 -1015 1110
-64 14 -371 29 -382 19z"/>
<path d="M1170 2090 c-168 -29 -304 -103 -423 -229 -102 -109 -176 -255 -195
-386 -8 -60 -8 -205 1 -258 26 -144 116 -309 224 -407 78 -71 92 -81 178 -125
100 -51 213 -78 325 -79 107 0 158 8 247 38 301 102 506 386 506 701 0 55 -3
114 -6 130 -4 17 -9 43 -13 60 -24 108 -118 268 -211 356 -164 158 -416 237
-633 199z m290 -367 c36 -18 84 -49 107 -70 264 -241 103 -692 -253 -708 -124
-6 -226 31 -308 112 -90 88 -132 200 -123 322 9 112 43 188 117 262 87 86 173
118 305 115 78 -1 98 -6 155 -33z"/>
<path d="M2306 1258 c-2 -7 -8 -49 -14 -93 -47 -353 -311 -676 -660 -806 -87
-33 -205 -59 -274 -61 -34 -1 -34 -2 -6 -69 29 -70 79 -155 117 -198 l30 -33
53 12 c498 117 874 466 1011 940 43 148 43 152 -6 191 -39 31 -220 129 -239
129 -5 0 -10 -6 -12 -12z"/>
</g>
</svg>
